<?xml version="1.0" encoding="utf-8"?>
<!-- Generator: Adobe Illustrator 17.1.0, SVG Export Plug-In . SVG Version: 6.00 Build 0)  -->
<!DOCTYPE svg PUBLIC "-//W3C//DTD SVG 1.1//EN" "http://www.w3.org/Graphics/SVG/1.1/DTD/svg11.dtd">
<svg version="1.1" id="Capa_1" xmlns="http://www.w3.org/2000/svg" xmlns:xlink="http://www.w3.org/1999/xlink" x="0px" y="0px"
	 width="64px" height="64px" viewBox="0 0 64 64" enable-background="new 0 0 64 64" xml:space="preserve">
<g>
	<g>
		<circle id="XMLID_11_" fill="#FF0000" cx="32" cy="32" r="32"/>
	</g>
</g>
<g id="XMLID_233_">
	<path id="XMLID_235_" fill="#FFFFFF" d="M39.5,11.2l-5.9,0c-6,0-12,4.4-12,14.3c0,5.1,2.2,9.1,6.1,11.4L20.4,50
		c-0.3,0.6-0.4,1.3,0,1.9c0.3,0.5,0.9,0.9,1.6,0.9l3.7,0c0.8,0,1.5-0.4,1.8-1.1l6.8-13.4h0.5v12.8c0,0.9,0.8,1.7,1.7,1.7l3.2,0
		c1,0,1.7-0.7,1.7-1.7V13C41.4,11.9,40.6,11.2,39.5,11.2z M34.8,32.4h-0.9c-3.4,0-5.4-2.8-5.4-7.4c0-5.8,2.6-7.9,5-7.9l1.3,0V32.4z"
		/>
</g>
</svg>
